<svg width="176" height="40" viewBox="0 0 176 40" fill="none" xmlns="http://www.w3.org/2000/svg">
<path fill-rule="evenodd" clip-rule="evenodd" d="M11.352 3.1568C11.352 2.5248 10.8336 2 10.176 2H10.1744C9.5312 2 8.9968 2.5248 8.9968 3.1568C8.9968 4.8832 10.4416 6.3008 12.216 6.3008H13.7696C14.8368 6.3008 15.7328 7.1632 15.7328 8.2272V8.488C13.5968 8.488 11.4944 8.52 9.4368 8.552C3.9728 8.552 0 12.4352 0 17.8V24.6896C0 30.0544 3.9728 33.9376 9.4208 33.9376C11.6032 33.984 13.8176 34 16.016 34C18.2144 34 20.3968 33.9856 22.5792 33.9376C28.0272 33.9376 32 30.0544 32 24.6896V17.7984C32 12.4352 28.0272 8.5504 22.5792 8.5504C22.0549 8.54539 21.5324 8.53845 21.0112 8.53152C20.0339 8.51853 19.0611 8.5056 18.0896 8.5056V8.2128C18.0736 5.8992 16.1408 4.0048 13.7696 3.9888H12.216C11.7456 3.9888 11.352 3.6192 11.352 3.1568ZM10.5069 17.6394C10.7279 17.4223 11.0262 17.3022 11.336 17.3056H11.3376C11.9809 17.3038 12.5063 17.8192 12.5168 18.4624V20.0816H14.1648C14.8069 20.0806 15.331 20.5948 15.3424 21.2368C15.3403 21.5468 15.2147 21.8433 14.9933 22.0604C14.772 22.2775 14.4732 22.3974 14.1632 22.3936H12.5152V24.0272C12.5038 24.6692 11.9797 25.1834 11.3376 25.1824C10.6784 25.1824 10.16 24.6592 10.16 24.0256V22.3936H8.496C7.8528 22.3936 7.3184 21.8848 7.3184 21.2368C7.32976 20.5948 7.85393 20.0806 8.496 20.0816H10.1584V18.4624C10.1605 18.1526 10.2859 17.8565 10.5069 17.6394ZM23.6784 22.7776H23.52C22.8816 22.7776 22.364 23.2952 22.364 23.9336C22.364 24.572 22.8816 25.0896 23.52 25.0896H23.6768C23.9863 25.093 24.2844 24.9731 24.5053 24.7564C24.7263 24.5396 24.8519 24.2439 24.8544 23.9344C24.843 23.2924 24.3189 22.7782 23.6768 22.7792L23.6784 22.7776ZM20.8352 17.4768H20.992C21.6347 17.4758 22.1591 17.991 22.1696 18.6336C22.1671 18.9431 22.0415 19.2388 21.8205 19.4556C21.5996 19.6723 21.3015 19.7922 20.992 19.7888H20.8352C20.1968 19.7888 19.6792 19.2712 19.6792 18.6328C19.6792 17.9944 20.1968 17.4768 20.8352 17.4768Z" fill="url(#paint0_linear_2_56)"/>
<path d="M161.586 31V25.9844H156.57V31H161.586Z" fill="white"/>
<path d="M52.0114 7.72727V31H47.0909V12.3977H46.9545L41.625 15.7386V11.375L47.3864 7.72727H52.0114ZM57.679 31V7.72727H73.0881V11.7841H62.5994V17.3295H72.0653V21.3864H62.5994V31H57.679ZM76.0256 31V13.5455H80.7188V16.5909H80.9006C81.2188 15.5076 81.7528 14.6894 82.5028 14.1364C83.2528 13.5758 84.1165 13.2955 85.0938 13.2955C85.3362 13.2955 85.5975 13.3106 85.8778 13.3409C86.1581 13.3712 86.4044 13.4129 86.6165 13.4659V17.7614C86.3892 17.6932 86.0748 17.6326 85.6733 17.5795C85.2718 17.5265 84.9044 17.5 84.571 17.5C83.8589 17.5 83.2225 17.6553 82.6619 17.9659C82.1089 18.2689 81.6695 18.6932 81.3438 19.2386C81.0256 19.7841 80.8665 20.4129 80.8665 21.125V31H76.0256ZM93.5966 31.3295C92.483 31.3295 91.4905 31.1364 90.6193 30.75C89.7481 30.3561 89.0587 29.7765 88.5511 29.0114C88.0511 28.2386 87.8011 27.2765 87.8011 26.125C87.8011 25.1553 87.9792 24.3409 88.3352 23.6818C88.6913 23.0227 89.1761 22.4924 89.7898 22.0909C90.4034 21.6894 91.1004 21.3864 91.8807 21.1818C92.6686 20.9773 93.4943 20.8333 94.358 20.75C95.3731 20.6439 96.1913 20.5455 96.8125 20.4545C97.4337 20.3561 97.8845 20.2121 98.1648 20.0227C98.4451 19.8333 98.5852 19.553 98.5852 19.1818V19.1136C98.5852 18.3939 98.358 17.8371 97.9034 17.4432C97.4564 17.0492 96.8201 16.8523 95.9943 16.8523C95.1231 16.8523 94.4299 17.0455 93.9148 17.4318C93.3996 17.8106 93.0587 18.2879 92.892 18.8636L88.4148 18.5C88.642 17.4394 89.089 16.5227 89.7557 15.75C90.4223 14.9697 91.2822 14.3712 92.3352 13.9545C93.3958 13.5303 94.6231 13.3182 96.017 13.3182C96.9867 13.3182 97.9148 13.4318 98.8011 13.6591C99.6951 13.8864 100.487 14.2386 101.176 14.7159C101.873 15.1932 102.422 15.8068 102.824 16.5568C103.225 17.2992 103.426 18.1894 103.426 19.2273V31H98.8352V28.5795H98.6989C98.4186 29.125 98.0436 29.6061 97.5739 30.0227C97.1042 30.4318 96.5398 30.7538 95.8807 30.9886C95.2216 31.2159 94.4602 31.3295 93.5966 31.3295ZM94.983 27.9886C95.6951 27.9886 96.3239 27.8485 96.8693 27.5682C97.4148 27.2803 97.8428 26.8939 98.1534 26.4091C98.464 25.9242 98.6193 25.375 98.6193 24.7614V22.9091C98.4678 23.0076 98.2595 23.0985 97.9943 23.1818C97.7367 23.2576 97.4451 23.3295 97.1193 23.3977C96.7936 23.4583 96.4678 23.5152 96.142 23.5682C95.8163 23.6136 95.5208 23.6553 95.2557 23.6932C94.6875 23.7765 94.1913 23.9091 93.767 24.0909C93.3428 24.2727 93.0133 24.5189 92.7784 24.8295C92.5436 25.1326 92.4261 25.5114 92.4261 25.9659C92.4261 26.625 92.6648 27.1288 93.142 27.4773C93.6269 27.8182 94.2405 27.9886 94.983 27.9886ZM107.182 31V13.5455H111.795V16.625H112C112.364 15.6023 112.97 14.7955 113.818 14.2045C114.667 13.6136 115.682 13.3182 116.864 13.3182C118.061 13.3182 119.08 13.6174 119.92 14.2159C120.761 14.8068 121.322 15.6098 121.602 16.625H121.784C122.14 15.625 122.784 14.8258 123.716 14.2273C124.655 13.6212 125.765 13.3182 127.045 13.3182C128.674 13.3182 129.996 13.8371 131.011 14.875C132.034 15.9053 132.545 17.3674 132.545 19.2614V31H127.716V20.2159C127.716 19.2462 127.458 18.5189 126.943 18.0341C126.428 17.5492 125.784 17.3068 125.011 17.3068C124.133 17.3068 123.447 17.5871 122.955 18.1477C122.462 18.7008 122.216 19.4318 122.216 20.3409V31H117.523V20.1136C117.523 19.2576 117.277 18.5758 116.784 18.0682C116.299 17.5606 115.659 17.3068 114.864 17.3068C114.326 17.3068 113.841 17.4432 113.409 17.7159C112.985 17.9811 112.648 18.3561 112.398 18.8409C112.148 19.3182 112.023 19.8788 112.023 20.5227V31H107.182ZM144.324 31.3409C142.528 31.3409 140.983 30.9773 139.688 30.25C138.4 29.5152 137.407 28.4773 136.71 27.1364C136.013 25.7879 135.665 24.1932 135.665 22.3523C135.665 20.5568 136.013 18.9811 136.71 17.625C137.407 16.2689 138.388 15.2121 139.653 14.4545C140.926 13.697 142.419 13.3182 144.131 13.3182C145.282 13.3182 146.354 13.5038 147.347 13.875C148.347 14.2386 149.218 14.7879 149.96 15.5227C150.71 16.2576 151.294 17.1818 151.71 18.2955C152.127 19.4015 152.335 20.697 152.335 22.1818V23.5114H137.597V20.5114H147.778C147.778 19.8144 147.627 19.197 147.324 18.6591C147.021 18.1212 146.6 17.7008 146.062 17.3977C145.532 17.0871 144.915 16.9318 144.21 16.9318C143.475 16.9318 142.824 17.1023 142.256 17.4432C141.695 17.7765 141.256 18.2273 140.938 18.7955C140.619 19.3561 140.456 19.9811 140.449 20.6705V23.5227C140.449 24.3864 140.608 25.1326 140.926 25.7614C141.252 26.3902 141.71 26.875 142.301 27.2159C142.892 27.5568 143.593 27.7273 144.403 27.7273C144.941 27.7273 145.434 27.6515 145.881 27.5C146.328 27.3485 146.71 27.1212 147.028 26.8182C147.347 26.5152 147.589 26.1439 147.756 25.7045L152.233 26C152.006 27.0758 151.54 28.0152 150.835 28.8182C150.138 29.6136 149.237 30.2348 148.131 30.6818C147.032 31.1212 145.763 31.3409 144.324 31.3409Z" fill="white"/>
<defs>
<linearGradient id="paint0_linear_2_56" x1="18.0498" y1="-9.77344" x2="-5.49707" y2="18.127" gradientUnits="userSpaceOnUse">
<stop stop-color="#5C8FFF"/>
<stop offset="1" stop-color="#C14BFF"/>
</linearGradient>
</defs>
</svg>
