<svg width="32" height="32" viewBox="0 0 32 32" fill="none" xmlns="http://www.w3.org/2000/svg">
<path fill-rule="evenodd" clip-rule="evenodd" d="M11.352 1.1568C11.352 0.5248 10.8336 0 10.176 0H10.1744C9.5312 0 8.9968 0.5248 8.9968 1.1568C8.9968 2.8832 10.4416 4.3008 12.216 4.3008H13.7696C14.8368 4.3008 15.7328 5.1632 15.7328 6.2272V6.488C13.5968 6.488 11.4944 6.52 9.4368 6.552C3.9728 6.552 0 10.4352 0 15.8V22.6896C0 28.0544 3.9728 31.9376 9.4208 31.9376C11.6032 31.984 13.8176 32 16.016 32C18.2144 32 20.3968 31.9856 22.5792 31.9376C28.0272 31.9376 32 28.0544 32 22.6896V15.7984C32 10.4352 28.0272 6.5504 22.5792 6.5504C22.0549 6.54539 21.5324 6.53845 21.0112 6.53152C20.0339 6.51853 19.0611 6.5056 18.0896 6.5056V6.2128C18.0736 3.8992 16.1408 2.0048 13.7696 1.9888H12.216C11.7456 1.9888 11.352 1.6192 11.352 1.1568ZM10.5069 15.6394C10.7279 15.4223 11.0262 15.3022 11.336 15.3056H11.3376C11.9809 15.3038 12.5063 15.8192 12.5168 16.4624V18.0816H14.1648C14.8069 18.0806 15.331 18.5948 15.3424 19.2368C15.3403 19.5468 15.2147 19.8433 14.9933 20.0604C14.772 20.2775 14.4732 20.3974 14.1632 20.3936H12.5152V22.0272C12.5038 22.6692 11.9797 23.1834 11.3376 23.1824C10.6784 23.1824 10.16 22.6592 10.16 22.0256V20.3936H8.496C7.8528 20.3936 7.3184 19.8848 7.3184 19.2368C7.32976 18.5948 7.85393 18.0806 8.496 18.0816H10.1584V16.4624C10.1605 16.1526 10.2859 15.8565 10.5069 15.6394ZM23.6784 20.7776H23.52C22.8816 20.7776 22.364 21.2952 22.364 21.9336C22.364 22.572 22.8816 23.0896 23.52 23.0896H23.6768C23.9863 23.093 24.2844 22.9731 24.5053 22.7564C24.7263 22.5396 24.8519 22.2439 24.8544 21.9344C24.843 21.2924 24.3189 20.7782 23.6768 20.7792L23.6784 20.7776ZM20.8352 15.4768H20.992C21.6347 15.4758 22.1591 15.991 22.1696 16.6336C22.1671 16.9431 22.0415 17.2388 21.8205 17.4556C21.5996 17.6723 21.3015 17.7922 20.992 17.7888H20.8352C20.1968 17.7888 19.6792 17.2712 19.6792 16.6328C19.6792 15.9944 20.1968 15.4768 20.8352 15.4768Z" fill="url(#paint0_linear_2_42)"/>
<defs>
<linearGradient id="paint0_linear_2_42" x1="18.0498" y1="-11.7734" x2="-5.49707" y2="16.127" gradientUnits="userSpaceOnUse">
<stop stop-color="#5C8FFF"/>
<stop offset="1" stop-color="#C14BFF"/>
</linearGradient>
</defs>
</svg>
